<svg width="1668" height="1085" viewBox="0 0 1668 1085" fill="none" xmlns="http://www.w3.org/2000/svg">
<g filter="url(#filter0_f_629_52)">
<path d="M799.302 337.358C808.026 391.788 766.197 402.578 614.478 426.896C462.76 451.214 337.944 485.569 329.22 431.14C320.496 376.71 411.453 346.677 563.172 322.359C714.89 298.041 790.578 282.929 799.302 337.358Z" fill="white"/>
</g>
<g filter="url(#filter1_f_629_52)">
<path d="M1404.31 472.017C1407.87 522.573 1196.61 566.562 961.621 583.081C726.637 599.599 676.505 590.762 672.951 540.205C669.397 489.648 703.721 452.962 938.706 436.443C1173.69 419.925 1400.76 421.46 1404.31 472.017Z" fill="white"/>
</g>
<g filter="url(#filter2_f_629_52)">
<path d="M1476.26 726.102C1470.1 763.35 1360.27 767.132 1243.17 747.765C1126.07 728.398 1103.02 715.275 1109.18 678.027C1115.34 640.779 1148.28 594.127 1265.38 613.494C1382.48 632.861 1482.42 688.854 1476.26 726.102Z" fill="white"/>
</g>
<g filter="url(#filter3_f_629_52)">
<path d="M1077 243.865C1077 258.568 1029.83 267 977.862 267C925.895 267 915 263.423 915 248.72C915 234.018 925.895 214 977.862 214C1029.83 214 1077 229.163 1077 243.865Z" fill="white"/>
</g>
<g filter="url(#filter4_f_629_52)">
<path d="M1104 694.008C1104 713.704 1031.79 725 952.234 725C872.679 725 856 720.208 856 700.512C856 680.816 872.679 654 952.234 654C1031.79 654 1104 674.312 1104 694.008Z" fill="white"/>
</g>
<g filter="url(#filter5_f_629_52)">
<path d="M1216 271.627C1216 289.659 1194.45 300 1170.71 300C1146.98 300 1142 295.613 1142 277.581C1142 259.55 1146.98 235 1170.71 235C1194.45 235 1216 253.596 1216 271.627Z" fill="white"/>
</g>
<g filter="url(#filter6_f_629_52)">
<path d="M1510 307.008C1510 326.704 1447.4 338 1378.43 338C1309.46 338 1295 333.208 1295 313.512C1295 293.816 1309.46 267 1378.43 267C1447.4 267 1510 287.312 1510 307.008Z" fill="white"/>
</g>
<g filter="url(#filter7_f_629_52)">
<path d="M848.899 739.534C837.429 803.262 587.999 785.399 502.543 770.018C417.086 754.637 289.385 782.808 300.855 719.08C312.325 655.352 593.377 659.59 678.833 674.971C764.29 690.352 860.369 675.806 848.899 739.534Z" fill="white"/>
</g>
<defs>
<filter id="filter0_f_629_52" x="28.644" y="0.328369" width="1071.75" height="759.844" filterUnits="userSpaceOnUse" color-interpolation-filters="sRGB">
<feFlood flood-opacity="0" result="BackgroundImageFix"/>
<feBlend mode="normal" in="SourceGraphic" in2="BackgroundImageFix" result="shape"/>
<feGaussianBlur stdDeviation="150" result="effect1_foregroundBlur_629_52"/>
</filter>
<filter id="filter1_f_629_52" x="272.716" y="27.0613" width="1531.64" height="963.599" filterUnits="userSpaceOnUse" color-interpolation-filters="sRGB">
<feFlood flood-opacity="0" result="BackgroundImageFix"/>
<feBlend mode="normal" in="SourceGraphic" in2="BackgroundImageFix" result="shape"/>
<feGaussianBlur stdDeviation="200" result="effect1_foregroundBlur_629_52"/>
</filter>
<filter id="filter2_f_629_52" x="808.273" y="308.958" width="968.255" height="750.293" filterUnits="userSpaceOnUse" color-interpolation-filters="sRGB">
<feFlood flood-opacity="0" result="BackgroundImageFix"/>
<feBlend mode="normal" in="SourceGraphic" in2="BackgroundImageFix" result="shape"/>
<feGaussianBlur stdDeviation="150" result="effect1_foregroundBlur_629_52"/>
</filter>
<filter id="filter3_f_629_52" x="715" y="14" width="562" height="453" filterUnits="userSpaceOnUse" color-interpolation-filters="sRGB">
<feFlood flood-opacity="0" result="BackgroundImageFix"/>
<feBlend mode="normal" in="SourceGraphic" in2="BackgroundImageFix" result="shape"/>
<feGaussianBlur stdDeviation="100" result="effect1_foregroundBlur_629_52"/>
</filter>
<filter id="filter4_f_629_52" x="656" y="454" width="648" height="471" filterUnits="userSpaceOnUse" color-interpolation-filters="sRGB">
<feFlood flood-opacity="0" result="BackgroundImageFix"/>
<feBlend mode="normal" in="SourceGraphic" in2="BackgroundImageFix" result="shape"/>
<feGaussianBlur stdDeviation="100" result="effect1_foregroundBlur_629_52"/>
</filter>
<filter id="filter5_f_629_52" x="942" y="35" width="474" height="465" filterUnits="userSpaceOnUse" color-interpolation-filters="sRGB">
<feFlood flood-opacity="0" result="BackgroundImageFix"/>
<feBlend mode="normal" in="SourceGraphic" in2="BackgroundImageFix" result="shape"/>
<feGaussianBlur stdDeviation="100" result="effect1_foregroundBlur_629_52"/>
</filter>
<filter id="filter6_f_629_52" x="1095" y="67" width="615" height="471" filterUnits="userSpaceOnUse" color-interpolation-filters="sRGB">
<feFlood flood-opacity="0" result="BackgroundImageFix"/>
<feBlend mode="normal" in="SourceGraphic" in2="BackgroundImageFix" result="shape"/>
<feGaussianBlur stdDeviation="100" result="effect1_foregroundBlur_629_52"/>
</filter>
<filter id="filter7_f_629_52" x="0.132935" y="365.343" width="1149.7" height="719.293" filterUnits="userSpaceOnUse" color-interpolation-filters="sRGB">
<feFlood flood-opacity="0" result="BackgroundImageFix"/>
<feBlend mode="normal" in="SourceGraphic" in2="BackgroundImageFix" result="shape"/>
<feGaussianBlur stdDeviation="150" result="effect1_foregroundBlur_629_52"/>
</filter>
</defs>
</svg>
