<svg width="50" height="50" viewBox="0 0 50 50" fill="none" xmlns="http://www.w3.org/2000/svg">
<path d="M18.75 18.75L31.25 31.25M31.25 18.75L18.75 31.25M16.25 43.75H33.75C37.2503 43.75 39.0005 43.75 40.3374 43.0688C41.5135 42.4696 42.4696 41.5135 43.0688 40.3374C43.75 39.0005 43.75 37.2503 43.75 33.75V16.25C43.75 12.7497 43.75 10.9995 43.0688 9.66256C42.4696 8.48655 41.5135 7.53042 40.3374 6.93121C39.0005 6.25 37.2503 6.25 33.75 6.25H16.25C12.7497 6.25 10.9995 6.25 9.66256 6.93121C8.48655 7.53042 7.53042 8.48655 6.93121 9.66256C6.25 10.9995 6.25 12.7497 6.25 16.25V33.75C6.25 37.2503 6.25 39.0005 6.93121 40.3374C7.53042 41.5135 8.48655 42.4696 9.66256 43.0688C10.9995 43.75 12.7497 43.75 16.25 43.75Z" stroke="white" stroke-width="4.16667" stroke-linecap="round" stroke-linejoin="round"/>
</svg>
