<svg width="46" height="33" viewBox="0 0 46 33" fill="none" xmlns="http://www.w3.org/2000/svg">
<path d="M39.2719 3.18389C39.1089 2.96789 38.8909 2.79989 38.6399 2.69789L37.9239 2.40589C35.1959 1.29289 33.2259 0.488889 30.8819 0.0498892C29.4729 -0.214111 27.9529 0.588889 27.1749 2.00289C25.8919 1.88389 24.5349 1.84389 23.0259 1.88289C21.4589 1.84589 20.0899 1.88289 18.8049 2.00289C18.0389 0.611889 16.5239 -0.17111 15.1129 0.0908896C12.5879 0.56289 10.5089 1.40889 7.33989 2.69689C7.08889 2.79889 6.87089 2.96689 6.70789 3.18289C1.38489 10.2379 -0.736113 17.8939 0.223887 26.5869C0.275887 27.0519 0.540887 27.4659 0.941887 27.7079C4.49389 29.8449 7.57089 31.3109 10.6269 32.3199C12.1009 32.8069 13.7379 32.2519 14.6139 30.9729L15.9799 28.9739C18.2259 29.5409 20.5669 29.8499 22.9909 29.8959C25.3539 29.8509 27.6849 29.5399 29.9329 28.9699L31.3729 31.0169C32.0439 31.9719 33.1089 32.5059 34.2239 32.5059C34.5919 32.5059 34.9649 32.4479 35.3309 32.3269C38.3929 31.3179 41.4769 29.8499 45.0379 27.7079C45.4379 27.4669 45.7039 27.0519 45.7559 26.5869C46.7149 17.8929 44.5939 10.2369 39.2719 3.18389ZM15.4719 20.9649C13.5459 20.9649 11.9609 18.9359 11.9609 16.4699C11.9609 14.0039 13.5459 11.9749 15.4719 11.9749C17.3979 11.9749 18.9829 14.0039 18.9829 16.4699C18.9829 18.9359 17.3979 20.9649 15.4719 20.9649ZM29.4719 20.9919C27.5639 20.9919 25.9939 18.9509 25.9939 16.4699C25.9939 13.9889 27.5639 11.9479 29.4719 11.9479C31.3799 11.9479 32.9499 13.9889 32.9499 16.4699C32.9499 18.9509 31.3799 20.9919 29.4719 20.9919Z" fill="white"/>
</svg>
