<svg width="32" height="22" viewBox="0 0 32 22" fill="none" xmlns="http://www.w3.org/2000/svg">
<path d="M26.9984 2.14272C26.8885 1.99736 26.7415 1.88429 26.5722 1.81565L26.0893 1.61914C24.2496 0.8701 22.921 0.329017 21.3402 0.0335749C20.3899 -0.144094 19.3648 0.396316 18.8401 1.34792C17.9749 1.26784 17.0597 1.24092 16.042 1.26716C14.9852 1.24226 14.062 1.26716 13.1953 1.34792C12.6787 0.411795 11.657 -0.115155 10.7054 0.0611677C9.00255 0.378819 7.60046 0.948167 5.46326 1.81498C5.29398 1.88362 5.14696 1.99668 5.03703 2.14205C1.44716 6.88999 0.0167435 12.0424 0.664175 17.8927C0.699244 18.2056 0.877962 18.4842 1.1484 18.6471C3.5439 20.0853 5.61905 21.0719 7.68004 21.7509C8.67412 22.0787 9.77812 21.7052 10.3689 20.8444L11.2901 19.4991C12.8049 19.8807 14.3837 20.0887 16.0184 20.1196C17.612 20.0893 19.1841 19.88 20.7002 19.4964L21.6713 20.874C22.1238 21.5167 22.8421 21.8761 23.594 21.8761C23.8422 21.8761 24.0938 21.8371 24.3406 21.7556C26.4056 21.0766 28.4855 20.0887 30.8871 18.6471C31.1568 18.4849 31.3362 18.2056 31.3713 17.8927C32.0181 12.0417 30.5876 6.88931 26.9984 2.14272ZM10.9475 14.1091C9.64864 14.1091 8.5797 12.7436 8.5797 11.0841C8.5797 9.42447 9.64864 8.05897 10.9475 8.05897C12.2465 8.05897 13.3154 9.42447 13.3154 11.0841C13.3154 12.7436 12.2465 14.1091 10.9475 14.1091ZM20.3893 14.1273C19.1025 14.1273 18.0437 12.7537 18.0437 11.0841C18.0437 9.41437 19.1025 8.0408 20.3893 8.0408C21.676 8.0408 22.7348 9.41437 22.7348 11.0841C22.7348 12.7537 21.676 14.1273 20.3893 14.1273Z" fill="#242427"/>
</svg>
