<svg width="740" height="228" viewBox="0 0 740 228" fill="none" xmlns="http://www.w3.org/2000/svg">
<g clip-path="url(#clip0_462_160)">
<path d="M22.8569 2.5H717.135C728.379 2.5 737.494 11.6148 737.494 22.8584V204.834C737.494 216.077 728.379 225.192 717.135 225.192H22.8569C11.6133 225.192 2.49854 216.077 2.49854 204.834V22.8584C2.49854 11.6148 11.6133 2.5 22.8569 2.5Z" fill="white" stroke="black" stroke-width="5"/>
<path d="M68.0672 33.435C60.168 38.1215 44.6154 55.991 44.468 60.6776V68.4369C44.468 78.2711 53.6598 86.9148 62.0049 86.9148C72.0243 86.9148 80.3732 78.6075 80.3732 68.7506C80.3732 78.6075 88.4387 86.9148 98.4619 86.9148C108.481 86.9148 116.286 78.6075 116.286 68.7506C116.286 78.6075 124.862 86.9148 134.881 86.9148H135.063C145.086 86.9148 153.658 78.6075 153.658 68.7506C153.658 78.6075 161.466 86.9148 171.486 86.9148C181.509 86.9148 189.57 78.6075 189.57 68.7506C189.57 78.6075 197.923 86.9148 207.943 86.9148C216.288 86.9148 225.479 78.2711 225.479 68.4331V60.6776C225.332 55.991 209.776 38.1215 201.88 33.435C177.34 32.5732 160.328 32.4221 134.972 32.4258C109.619 32.4258 75.0517 32.8227 68.0672 33.435ZM116.161 82.2812C115.203 83.9524 114.016 85.4815 112.635 86.8241C108.713 90.6684 103.439 92.8196 97.9479 92.8146C92.4479 92.819 87.1654 90.667 83.2343 86.8204C81.9056 85.5041 80.7716 84.0049 79.8668 82.3681L79.863 82.3719C78.9106 84.0462 77.5802 85.4824 76.2082 86.8279C72.2743 90.6716 66.9909 92.8208 61.4909 92.8146C60.8129 92.7917 60.143 92.6603 59.5066 92.4254C58.8132 99.8253 58.3909 107.248 58.2405 114.679V114.713L58.1951 123.515C58.3463 141.117 56.4528 180.563 65.9545 190.258C80.6832 193.689 107.782 195.254 134.968 195.265H134.976C162.162 195.254 189.264 193.689 203.989 190.258C213.495 180.563 211.597 141.117 211.752 123.512L211.707 114.713V114.675C211.557 107.246 211.135 99.824 210.441 92.4254C209.805 92.6605 209.135 92.7919 208.457 92.8146C202.956 92.8198 197.673 90.6692 193.739 86.8241C192.367 85.4786 191.037 84.0462 190.084 82.3719C189.179 84.006 188.041 85.5026 186.713 86.8166C182.782 90.6635 177.5 92.8156 172 92.8108C166.508 92.8154 161.234 90.6643 157.312 86.8204C155.931 85.4777 154.744 83.9486 153.786 82.2774C152.839 83.9466 151.664 85.4757 150.294 86.8204C146.362 90.6679 141.078 92.82 135.577 92.8146C135.377 92.8134 135.178 92.8083 134.979 92.7995H134.972C134.775 92.7995 134.575 92.8146 134.375 92.8146C128.873 92.82 123.589 90.6679 119.657 86.8204C118.287 85.4771 117.11 83.9493 116.161 82.2812ZM101.047 101.821V101.833H101.058C107.041 101.844 112.359 101.832 118.947 109.021C124.271 108.472 129.62 108.203 134.972 108.216C140.324 108.203 145.673 108.472 150.997 109.021C157.588 101.832 162.902 101.84 168.889 101.833H168.9V101.825C171.727 101.825 183.036 101.825 190.92 123.961L199.386 154.33C205.66 176.92 197.375 177.472 187.046 177.494C171.724 176.924 163.242 165.797 163.242 154.67C154.761 156.061 144.867 156.756 134.972 156.756C125.077 156.756 115.182 156.061 106.701 154.67C106.701 165.797 98.22 176.924 82.8979 177.494C72.5686 177.472 64.2877 176.92 70.5617 154.326L79.0277 123.961C86.9118 101.825 98.22 101.825 101.047 101.825V101.821ZM134.972 119.222C134.957 119.241 118.841 134.038 115.946 139.302L126.498 138.879V148.082C126.498 148.513 130.731 148.335 134.972 148.139C139.212 148.335 143.449 148.513 143.449 148.082V138.879L154.002 139.302C151.103 134.041 134.976 119.226 134.976 119.226L134.972 119.222Z" fill="black"/>
<path d="M286.689 189.964V116.321H311.535V189.964H286.689ZM299.263 110.33C295.07 110.33 291.826 109.283 289.531 107.19C287.336 105.093 286.239 102.299 286.239 98.8067C286.239 95.5135 287.336 92.7191 289.531 90.4237C291.826 88.1308 295.069 86.9844 299.259 86.9844C303.452 86.9844 306.646 88.1308 308.84 90.4237C311.136 92.7166 312.283 95.5109 312.283 98.8067C312.283 102.299 311.137 105.093 308.844 107.19C306.647 109.283 303.453 110.33 299.263 110.33ZM348.612 191.461C341.426 191.461 335.986 189.565 332.292 185.773C328.701 181.882 326.906 176.494 326.906 169.608V134.731H317.027V116.317H326.906V98.3569H351.753V116.321H367.921V134.727H351.753V166.014C351.753 168.309 352.201 169.956 353.098 170.953C354.096 171.853 355.593 172.303 357.588 172.303C360.284 172.303 363.228 171.105 366.421 168.708L372.109 185.025C369.216 187.023 365.923 188.619 362.229 189.813C358.538 190.914 353.999 191.461 348.612 191.461ZM409.726 191.461C398.35 191.461 389.369 188.218 382.782 181.733C376.297 175.247 373.054 165.817 373.054 153.443C373.054 144.46 374.899 136.927 378.591 130.842C382.383 124.553 387.125 120.311 392.817 118.116C398.804 115.821 404.343 114.673 409.435 114.673C415.82 114.673 421.159 115.971 425.453 118.566C429.744 121.06 432.887 123.804 434.883 126.798C436.981 129.791 438.478 132.136 439.373 133.831L422.161 144.909C420.568 141.616 418.822 139.021 416.922 137.123C415.028 135.228 412.735 134.281 410.044 134.281C406.249 134.281 403.256 135.778 401.064 138.771C398.869 141.764 397.772 146.305 397.772 152.392C397.772 158.979 399.069 163.819 401.665 166.913C404.255 170.007 407.946 171.554 412.739 171.554C416.533 171.554 419.676 170.855 422.168 169.457C424.764 168.056 427.209 166.259 429.504 164.067L437.441 182.625C435.045 184.618 431.501 186.614 426.81 188.615C422.12 190.507 416.432 191.453 409.745 191.453L409.726 191.461ZM445.881 189.964V89.974H470.879V120.361C472.972 118.864 475.517 117.567 478.513 116.468C481.506 115.271 485.098 114.673 489.288 114.673C498.07 114.673 504.605 117.167 508.896 122.156C513.288 127.15 515.484 134.188 515.484 143.269V189.972H490.487V146.258C490.487 142.071 489.689 139.027 488.094 137.127C486.502 135.134 484.407 134.137 481.809 134.137C479.614 134.137 477.567 134.638 475.667 135.638C473.775 136.636 472.179 137.685 470.879 138.786V189.979H445.881V189.964ZM534.676 191.461C530.685 191.461 527.542 190.315 525.247 188.022C522.954 185.726 521.807 182.782 521.807 179.189C521.807 175.596 522.954 172.603 525.247 170.209C527.542 167.815 530.685 166.618 534.676 166.618C538.469 166.618 541.512 167.815 543.808 170.209C546.106 172.603 547.255 175.596 547.255 179.189C547.255 182.782 546.108 185.725 543.815 188.018C541.623 190.313 538.579 191.461 534.684 191.461H534.676ZM553.06 189.964V116.321H577.906V189.964H553.06ZM565.627 110.345C561.437 110.345 558.194 109.297 555.898 107.201C553.704 105.107 552.606 102.314 552.606 98.8218C552.606 95.5286 553.702 92.7343 555.895 90.4388C558.192 88.1434 561.437 86.9957 565.627 86.9957C569.819 86.9957 573.013 88.1422 575.208 90.4351C577.501 92.733 578.647 95.5286 578.647 98.8218C578.647 102.314 577.501 105.107 575.208 107.201C573.013 109.297 569.819 110.345 565.627 110.345ZM621.783 191.461C615.995 191.461 610.855 190.514 606.362 188.619C601.872 186.623 598.031 183.928 594.838 180.534C591.747 177.042 589.353 172.952 587.657 168.262C586.057 163.473 585.257 158.282 585.257 152.691C585.257 144.411 587.054 137.177 590.647 130.989C594.341 124.902 598.932 120.661 604.419 118.267C610.008 115.871 615.796 114.673 621.783 114.673C630.362 114.673 637.445 116.669 643.031 120.66C648.718 124.651 652.711 129.64 655.012 135.627C657.305 141.616 658.451 147.305 658.451 152.695C658.451 158.281 657.602 163.47 655.904 168.262C654.309 172.949 651.913 177.04 648.715 180.534C645.621 183.928 641.779 186.624 637.188 188.623C632.698 190.52 627.558 191.469 621.767 191.469L621.783 191.461ZM621.783 172.299C625.973 172.299 629.016 170.554 630.914 167.064C632.809 163.471 633.756 158.681 633.756 152.695C633.756 147.005 632.758 142.465 630.763 139.073C628.77 135.679 625.776 133.982 621.783 133.982C617.89 133.982 614.947 135.679 612.954 139.073C610.961 142.465 609.964 147.005 609.964 152.695C609.964 158.681 610.913 163.47 612.81 167.061C614.811 170.555 617.804 172.303 621.79 172.303L621.783 172.299Z" fill="black"/>
<path d="M349.739 54.257C347.803 54.3474 346.174 54.5193 344.853 54.7726C343.532 55.0079 342.474 55.3154 341.678 55.6954C340.882 56.0754 340.312 56.5187 339.968 57.0253C339.624 57.5319 339.452 58.0838 339.452 58.6809C339.452 59.857 339.796 60.6983 340.484 61.2049C341.189 61.7116 342.103 61.9649 343.225 61.9649C344.6 61.9649 345.785 61.7206 346.78 61.2321C347.794 60.7255 348.78 59.9655 349.739 58.9523V54.257ZM334.377 42.1794C337.58 39.2482 341.434 37.7826 345.939 37.7826C347.567 37.7826 349.024 38.054 350.309 38.5969C351.593 39.1216 352.679 39.8634 353.565 40.8224C354.452 41.7633 355.122 42.8941 355.574 44.215C356.044 45.5358 356.279 46.9833 356.279 48.5574V66.1445H353.24C352.606 66.1445 352.118 66.0541 351.774 65.8731C351.43 65.6741 351.159 65.2851 350.96 64.7061L350.363 62.6977C349.657 63.331 348.97 63.8919 348.3 64.3804C347.631 64.8508 346.934 65.2489 346.21 65.5746C345.487 65.9003 344.709 66.1445 343.876 66.3074C343.062 66.4883 342.157 66.5788 341.162 66.5788C339.986 66.5788 338.9 66.425 337.905 66.1174C336.91 65.7917 336.051 65.3122 335.327 64.6789C334.603 64.0457 334.042 63.2586 333.644 62.3177C333.246 61.3768 333.047 60.2822 333.047 59.0337C333.047 58.328 333.165 57.6314 333.4 56.9439C333.635 56.2382 334.015 55.5688 334.54 54.9355C335.083 54.3022 335.779 53.7051 336.63 53.1442C337.48 52.5833 338.521 52.0948 339.751 51.6786C340.999 51.2625 342.447 50.9277 344.093 50.6744C345.74 50.403 347.622 50.2402 349.739 50.1859V48.5574C349.739 46.6938 349.341 45.3187 348.544 44.4321C347.748 43.5274 346.599 43.075 345.098 43.075C344.012 43.075 343.107 43.2017 342.384 43.455C341.678 43.7083 341.054 43.9978 340.511 44.3235C339.968 44.6311 339.47 44.9116 339.018 45.1649C338.584 45.4182 338.095 45.5448 337.553 45.5448C337.082 45.5448 336.684 45.4272 336.358 45.192C336.033 44.9387 335.77 44.6492 335.571 44.3235L334.377 42.1794ZM387.062 38.2983L376.016 66.1445H369.936L358.89 38.2983H364.427C364.933 38.2983 365.35 38.4159 365.675 38.6511C366.019 38.8864 366.245 39.1849 366.354 39.5468L371.728 54.4198C372.017 55.2883 372.27 56.1387 372.488 56.971C372.705 57.8033 372.895 58.6356 373.057 59.468C373.238 58.6356 373.437 57.8033 373.655 56.971C373.872 56.1387 374.134 55.2883 374.442 54.4198L379.924 39.5468C380.051 39.1849 380.277 38.8864 380.603 38.6511C380.928 38.4159 381.317 38.2983 381.77 38.2983H387.062ZM404.656 54.257C402.72 54.3474 401.091 54.5193 399.771 54.7726C398.45 55.0079 397.391 55.3154 396.595 55.6954C395.799 56.0754 395.229 56.5187 394.885 57.0253C394.541 57.5319 394.37 58.0838 394.37 58.6809C394.37 59.857 394.713 60.6983 395.401 61.2049C396.107 61.7116 397.02 61.9649 398.142 61.9649C399.517 61.9649 400.702 61.7206 401.698 61.2321C402.711 60.7255 403.697 59.9655 404.656 58.9523V54.257ZM389.294 42.1794C392.497 39.2482 396.351 37.7826 400.856 37.7826C402.485 37.7826 403.941 38.054 405.226 38.5969C406.51 39.1216 407.596 39.8634 408.483 40.8224C409.369 41.7633 410.039 42.8941 410.491 44.215C410.962 45.5358 411.197 46.9833 411.197 48.5574V66.1445H408.157C407.524 66.1445 407.035 66.0541 406.691 65.8731C406.348 65.6741 406.076 65.2851 405.877 64.7061L405.28 62.6977C404.574 63.331 403.887 63.8919 403.217 64.3804C402.548 64.8508 401.851 65.2489 401.128 65.5746C400.404 65.9003 399.626 66.1445 398.793 66.3074C397.979 66.4883 397.075 66.5788 396.079 66.5788C394.903 66.5788 393.818 66.425 392.823 66.1174C391.827 65.7917 390.968 65.3122 390.244 64.6789C389.52 64.0457 388.96 63.2586 388.562 62.3177C388.163 61.3768 387.964 60.2822 387.964 59.0337C387.964 58.328 388.082 57.6314 388.317 56.9439C388.552 56.2382 388.932 55.5688 389.457 54.9355C390 54.3022 390.697 53.7051 391.547 53.1442C392.397 52.5833 393.438 52.0948 394.668 51.6786C395.917 51.2625 397.364 50.9277 399.011 50.6744C400.657 50.403 402.539 50.2402 404.656 50.1859V48.5574C404.656 46.6938 404.258 45.3187 403.462 44.4321C402.666 43.5274 401.517 43.075 400.015 43.075C398.929 43.075 398.025 43.2017 397.301 43.455C396.595 43.7083 395.971 43.9978 395.428 44.3235C394.885 44.6311 394.388 44.9116 393.935 45.1649C393.501 45.4182 393.013 45.5448 392.47 45.5448C391.999 45.5448 391.601 45.4272 391.276 45.192C390.95 44.9387 390.688 44.6492 390.488 44.3235L389.294 42.1794ZM424.458 38.2983V66.1445H417.727V38.2983H424.458ZM425.381 30.1833C425.381 30.7623 425.263 31.3051 425.028 31.8117C424.793 32.3183 424.476 32.7616 424.078 33.1416C423.698 33.5216 423.246 33.8292 422.721 34.0644C422.197 34.2815 421.636 34.3901 421.039 34.3901C420.46 34.3901 419.908 34.2815 419.383 34.0644C418.876 33.8292 418.433 33.5216 418.053 33.1416C417.673 32.7616 417.366 32.3183 417.13 31.8117C416.913 31.3051 416.805 30.7623 416.805 30.1833C416.805 29.5862 416.913 29.0253 417.13 28.5006C417.366 27.9758 417.673 27.5235 418.053 27.1435C418.433 26.7636 418.876 26.465 419.383 26.2479C419.908 26.0127 420.46 25.8951 421.039 25.8951C421.636 25.8951 422.197 26.0127 422.721 26.2479C423.246 26.465 423.698 26.7636 424.078 27.1435C424.476 27.5235 424.793 27.9758 425.028 28.5006C425.263 29.0253 425.381 29.5862 425.381 30.1833ZM438.078 25.8136V66.1445H431.374V25.8136H438.078ZM459.467 54.257C457.531 54.3474 455.903 54.5193 454.582 54.7726C453.261 55.0079 452.202 55.3154 451.406 55.6954C450.61 56.0754 450.04 56.5187 449.696 57.0253C449.353 57.5319 449.181 58.0838 449.181 58.6809C449.181 59.857 449.525 60.6983 450.212 61.2049C450.918 61.7116 451.832 61.9649 452.953 61.9649C454.328 61.9649 455.514 61.7206 456.509 61.2321C457.522 60.7255 458.508 59.9655 459.467 58.9523V54.257ZM444.106 42.1794C447.308 39.2482 451.162 37.7826 455.667 37.7826C457.296 37.7826 458.752 38.054 460.037 38.5969C461.322 39.1216 462.407 39.8634 463.294 40.8224C464.18 41.7633 464.85 42.8941 465.302 44.215C465.773 45.5358 466.008 46.9833 466.008 48.5574V66.1445H462.968C462.335 66.1445 461.846 66.0541 461.503 65.8731C461.159 65.6741 460.887 65.2851 460.688 64.7061L460.091 62.6977C459.386 63.331 458.698 63.8919 458.029 64.3804C457.359 64.8508 456.663 65.2489 455.939 65.5746C455.215 65.9003 454.437 66.1445 453.605 66.3074C452.791 66.4883 451.886 66.5788 450.891 66.5788C449.715 66.5788 448.629 66.425 447.634 66.1174C446.639 65.7917 445.779 65.3122 445.055 64.6789C444.332 64.0457 443.771 63.2586 443.373 62.3177C442.975 61.3768 442.776 60.2822 442.776 59.0337C442.776 58.328 442.893 57.6314 443.128 56.9439C443.364 56.2382 443.744 55.5688 444.268 54.9355C444.811 54.3022 445.508 53.7051 446.358 53.1442C447.209 52.5833 448.249 52.0948 449.479 51.6786C450.728 51.2625 452.175 50.9277 453.822 50.6744C455.468 50.403 457.35 50.2402 459.467 50.1859V48.5574C459.467 46.6938 459.069 45.3187 458.273 44.4321C457.477 43.5274 456.328 43.075 454.826 43.075C453.74 43.075 452.836 43.2017 452.112 43.455C451.406 43.7083 450.782 43.9978 450.239 44.3235C449.696 44.6311 449.199 44.9116 448.747 45.1649C448.312 45.4182 447.824 45.5448 447.281 45.5448C446.811 45.5448 446.412 45.4272 446.087 45.192C445.761 44.9387 445.499 44.6492 445.3 44.3235L444.106 42.1794ZM479.025 58.9251C479.785 59.8479 480.608 60.4993 481.495 60.8793C482.4 61.2592 483.35 61.4492 484.345 61.4492C485.376 61.4492 486.299 61.2683 487.113 60.9064C487.945 60.5264 488.651 59.9474 489.23 59.1694C489.809 58.3733 490.252 57.3691 490.56 56.1568C490.868 54.9264 491.021 53.4608 491.021 51.76C491.021 48.7022 490.515 46.4948 489.502 45.1377C488.488 43.7626 487.032 43.075 485.132 43.075C483.847 43.075 482.725 43.3736 481.766 43.9707C480.807 44.5497 479.894 45.373 479.025 46.4405V58.9251ZM479.025 41.718C480.147 40.5419 481.386 39.6101 482.744 38.9225C484.119 38.2169 485.684 37.8641 487.439 37.8641C489.049 37.8641 490.497 38.1807 491.781 38.814C493.084 39.4473 494.188 40.361 495.092 41.5552C496.015 42.7313 496.721 44.1607 497.209 45.8434C497.698 47.5261 497.942 49.4169 497.942 51.5158C497.942 53.7775 497.662 55.8311 497.101 57.6767C496.54 59.5222 495.735 61.1054 494.685 62.4263C493.654 63.729 492.406 64.7423 490.94 65.466C489.474 66.1898 487.846 66.5516 486.055 66.5516C485.186 66.5516 484.399 66.4612 483.693 66.2802C482.988 66.1174 482.336 65.8822 481.739 65.5746C481.142 65.267 480.59 64.8961 480.084 64.4618C479.595 64.0095 479.125 63.5119 478.672 62.9691L478.374 64.8418C478.265 65.3122 478.075 65.647 477.804 65.846C477.551 66.045 477.198 66.1445 476.745 66.1445H472.322V25.8136H479.025V41.718ZM509.905 25.8136V66.1445H503.201V25.8136H509.905ZM534.524 49.0188C534.524 48.1503 534.397 47.3361 534.144 46.5762C533.909 45.7982 533.547 45.1196 533.058 44.5406C532.57 43.9616 531.946 43.5093 531.186 43.1836C530.444 42.8398 529.575 42.6679 528.58 42.6679C526.644 42.6679 525.115 43.2198 523.993 44.3235C522.89 45.4272 522.184 46.9923 521.876 49.0188H534.524ZM521.741 53.0628C521.849 54.4922 522.103 55.7316 522.501 56.781C522.899 57.8124 523.423 58.6718 524.075 59.3594C524.726 60.0289 525.495 60.5355 526.382 60.8793C527.286 61.2049 528.282 61.3678 529.367 61.3678C530.453 61.3678 531.385 61.2411 532.163 60.9878C532.959 60.7345 533.646 60.4541 534.225 60.1465C534.822 59.8389 535.338 59.5584 535.772 59.3051C536.225 59.0518 536.659 58.9251 537.075 58.9251C537.636 58.9251 538.052 59.1332 538.324 59.5494L540.251 61.992C539.509 62.8605 538.676 63.5933 537.754 64.1904C536.831 64.7694 535.863 65.2398 534.85 65.6017C533.854 65.9455 532.832 66.1898 531.783 66.3345C530.751 66.4793 529.747 66.5516 528.77 66.5516C526.834 66.5516 525.034 66.235 523.369 65.6017C521.704 64.9503 520.257 64.0004 519.027 62.752C517.796 61.4854 516.828 59.9293 516.123 58.0838C515.417 56.2201 515.064 54.067 515.064 51.6243C515.064 49.7245 515.372 47.9423 515.987 46.2776C516.602 44.5949 517.48 43.1384 518.62 41.908C519.778 40.6595 521.18 39.6734 522.826 38.9497C524.491 38.2259 526.364 37.8641 528.444 37.8641C530.199 37.8641 531.819 38.1445 533.303 38.7054C534.786 39.2663 536.062 40.0896 537.129 41.1752C538.197 42.2427 539.029 43.5636 539.626 45.1377C540.242 46.6938 540.549 48.476 540.549 50.4844C540.549 51.4977 540.441 52.1852 540.223 52.5471C540.006 52.8909 539.59 53.0628 538.975 53.0628H521.741ZM571.101 37.8641C573.164 37.8641 575.036 38.1988 576.719 38.8683C578.42 39.5377 579.867 40.4876 581.061 41.718C582.274 42.9484 583.206 44.4502 583.857 46.2234C584.508 47.9965 584.834 49.9778 584.834 52.1671C584.834 54.3746 584.508 56.3649 583.857 58.1381C583.206 59.9112 582.274 61.4221 581.061 62.6705C579.867 63.919 578.42 64.878 576.719 65.5474C575.036 66.2169 573.164 66.5516 571.101 66.5516C569.02 66.5516 567.129 66.2169 565.429 65.5474C563.728 64.878 562.271 63.919 561.059 62.6705C559.865 61.4221 558.933 59.9112 558.263 58.1381C557.612 56.3649 557.286 54.3746 557.286 52.1671C557.286 49.9778 557.612 47.9965 558.263 46.2234C558.933 44.4502 559.865 42.9484 561.059 41.718C562.271 40.4876 563.728 39.5377 565.429 38.8683C567.129 38.1988 569.02 37.8641 571.101 37.8641ZM571.101 61.3949C573.417 61.3949 575.127 60.6169 576.23 59.0608C577.352 57.5048 577.913 55.225 577.913 52.2214C577.913 49.2179 577.352 46.929 576.23 45.3549C575.127 43.7807 573.417 42.9936 571.101 42.9936C568.749 42.9936 567.003 43.7898 565.863 45.382C564.741 46.9562 564.18 49.236 564.18 52.2214C564.18 55.2069 564.741 57.4867 565.863 59.0608C567.003 60.6169 568.749 61.3949 571.101 61.3949ZM596.218 41.718C596.779 41.1571 597.367 40.6414 597.982 40.171C598.615 39.6825 599.276 39.2754 599.963 38.9497C600.669 38.6059 601.42 38.3435 602.216 38.1626C603.012 37.9636 603.88 37.8641 604.821 37.8641C606.341 37.8641 607.689 38.1264 608.865 38.6511C610.041 39.1578 611.018 39.8815 611.796 40.8224C612.593 41.7452 613.19 42.8579 613.588 44.1607C614.004 45.4453 614.212 46.8657 614.212 48.4217V66.1445H607.508V48.4217C607.508 46.7209 607.119 45.4091 606.341 44.4864C605.563 43.5455 604.378 43.075 602.786 43.075C601.628 43.075 600.542 43.3374 599.529 43.8621C598.516 44.3868 597.557 45.1015 596.652 46.0062V66.1445H589.948V38.2983H594.047C594.915 38.2983 595.485 38.7054 595.756 39.5196L596.218 41.718Z" fill="black"/>
</g>
<defs>
<clipPath id="clip0_462_160">
<rect width="740" height="227.692" fill="white"/>
</clipPath>
</defs>
</svg>
