<svg width="39" height="40" viewBox="0 0 39 40" fill="none" xmlns="http://www.w3.org/2000/svg">
<rect width="39" height="39" transform="translate(0 0.571533)" fill="white" fill-opacity="0.1"/>
<path d="M34.125 15.1965L34.125 5.44655M34.125 5.44655H24.375M34.125 5.44655L19.5 20.0715M16.25 5.44653H12.675C9.94474 5.44653 8.57962 5.44653 7.5368 5.97788C6.61951 6.44526 5.87373 7.19104 5.40634 8.10833C4.875 9.15115 4.875 10.5163 4.875 13.2465V26.8965C4.875 29.6268 4.875 30.9919 5.40634 32.0347C5.87373 32.952 6.61951 33.6978 7.5368 34.1652C8.57962 34.6965 9.94474 34.6965 12.675 34.6965H26.325C29.0553 34.6965 30.4204 34.6965 31.4632 34.1652C32.3805 33.6978 33.1263 32.952 33.5937 32.0347C34.125 30.9919 34.125 29.6268 34.125 26.8965V23.3215" stroke="black" stroke-width="3.25" stroke-linecap="round" stroke-linejoin="round"/>
</svg>
