<svg width="39" height="39" viewBox="0 0 39 39" fill="none" xmlns="http://www.w3.org/2000/svg">
<rect width="39" height="39" fill="white" fill-opacity="0.1"/>
<path d="M34.125 14.625L34.125 4.87502M34.125 4.87502H24.375M34.125 4.87502L19.5 19.5M16.25 4.875H12.675C9.94474 4.875 8.57962 4.875 7.5368 5.40634C6.61951 5.87373 5.87373 6.61951 5.40634 7.5368C4.875 8.57962 4.875 9.94474 4.875 12.675V26.325C4.875 29.0553 4.875 30.4204 5.40634 31.4632C5.87373 32.3805 6.61951 33.1263 7.5368 33.5937C8.57962 34.125 9.94474 34.125 12.675 34.125H26.325C29.0553 34.125 30.4204 34.125 31.4632 33.5937C32.3805 33.1263 33.1263 32.3805 33.5937 31.4632C34.125 30.4204 34.125 29.0553 34.125 26.325V22.75" stroke="white" stroke-width="3.25" stroke-linecap="round" stroke-linejoin="round"/>
</svg>
