<svg width="44" height="40" viewBox="0 0 44 40" fill="none" xmlns="http://www.w3.org/2000/svg">
<path d="M24.9824 5.98631e-05C24.6408 0.00399826 24.3108 0.124426 24.0469 0.341424C23.783 0.558423 23.6011 0.858992 23.5312 1.19342L21.2734 12.0274C16.3755 12.1645 11.9505 13.654 8.68359 16.0215C7.78459 15.3805 6.688 15.0001 5.5 15.0001C2.462 15.0001 0 17.4621 0 20.5001C0 22.6521 1.23806 24.5111 3.03906 25.4141C3.02806 25.6101 3 25.8021 3 26.0001C3 33.7321 11.507 40.0001 22 40.0001C32.493 40.0001 41 33.7321 41 26.0001C41 25.8021 40.9719 25.6101 40.9609 25.4141C42.7619 24.5111 44 22.6521 44 20.5001C44 17.4621 41.538 15.0001 38.5 15.0001C37.312 15.0001 36.2154 15.3805 35.3164 16.0215C32.4076 13.9135 28.5806 12.4992 24.3203 12.1153L26.168 3.25006L32.127 4.38483C32.5216 5.88527 33.8774 7.00006 35.5 7.00006C37.43 7.00006 39 5.43006 39 3.50006C39 1.57006 37.43 5.98631e-05 35.5 5.98631e-05C34.3435 5.98631e-05 33.3232 0.570441 32.6855 1.43756L25.2812 0.0274036C25.1828 0.00832441 25.0827 -0.000835959 24.9824 5.98631e-05ZM14.5 20.0001C16.433 20.0001 18 21.5671 18 23.5001C18 25.4331 16.433 27.0001 14.5 27.0001C12.567 27.0001 11 25.4331 11 23.5001C11 21.5671 12.567 20.0001 14.5 20.0001ZM29.5 20.0001C31.433 20.0001 33 21.5671 33 23.5001C33 25.4331 31.433 27.0001 29.5 27.0001C27.567 27.0001 26 25.4331 26 23.5001C26 21.5671 27.567 20.0001 29.5 20.0001ZM15.5 30.0001C15.8837 30.0001 16.2675 30.1465 16.5605 30.4395C16.6135 30.4885 18.262 32.0001 21.998 32.0001C25.771 32.0001 27.4225 30.4555 27.4375 30.4395C28.0235 29.8535 28.9726 29.8535 29.5586 30.4395C30.1446 31.0255 30.1455 31.9756 29.5605 32.5606C29.3105 32.8106 26.978 34.9981 22 34.9981C17.022 34.9981 14.6895 32.8106 14.4395 32.5606C13.8535 31.9756 13.8535 31.0255 14.4395 30.4395C14.7325 30.1465 15.1163 30.0001 15.5 30.0001Z" fill="white"/>
</svg>
