<svg width="35" height="36" viewBox="0 0 35 36" fill="none" xmlns="http://www.w3.org/2000/svg">
<rect width="35" height="36" fill="#FFB537"/>
<path d="M10.5 28V23M10.5 13V8M8 10.5H13M8 25.5H13M19 9L17.2658 13.5089C16.9838 14.2421 16.8428 14.6087 16.6235 14.9171C16.4292 15.1904 16.1904 15.4292 15.9171 15.6235C15.6087 15.8428 15.2421 15.9838 14.5089 16.2658L10 18L14.5089 19.7342C15.2421 20.0162 15.6087 20.1572 15.9171 20.3765C16.1904 20.5708 16.4292 20.8096 16.6235 21.0829C16.8428 21.3913 16.9838 21.7579 17.2658 22.4911L19 27L20.7342 22.4911C21.0162 21.7579 21.1572 21.3913 21.3765 21.0829C21.5708 20.8096 21.8096 20.5708 22.0829 20.3765C22.3913 20.1572 22.7579 20.0162 23.4911 19.7342L28 18L23.4911 16.2658C22.7579 15.9838 22.3913 15.8428 22.0829 15.6235C21.8096 15.4292 21.5708 15.1904 21.3765 14.9171C21.1572 14.6087 21.0162 14.2421 20.7342 13.5089L19 9Z" stroke="white" stroke-width="2" stroke-linecap="round" stroke-linejoin="round"/>
</svg>
