<svg width="23" height="24" viewBox="0 0 23 24" fill="none" xmlns="http://www.w3.org/2000/svg">
<path d="M7.08671 14.3168C7.21869 14.2927 7.354 14.2802 7.49178 14.2802C8.7932 14.2802 9.88448 15.389 9.88448 16.7869C9.88448 18.1848 8.7932 19.2935 7.49178 19.2935C6.6791 19.2935 5.95081 18.8618 5.51729 18.1979L6.6827 18.7158C6.68338 18.7161 6.68405 18.7164 6.68473 18.7167C6.95141 18.8377 7.22478 18.8884 7.49178 18.8884C8.29368 18.8884 9.03988 18.3988 9.3686 17.6067L9.36903 17.6057C9.80151 16.5562 9.33468 15.3236 8.29927 14.8572L8.29765 14.8565L7.08671 14.3168ZM12.6949 7.8997C12.6949 6.31747 13.9255 5.06391 15.4041 5.06391C16.8828 5.06391 18.1133 6.31747 18.1133 7.8997C18.1133 9.48195 16.8828 10.7355 15.4041 10.7355C13.9255 10.7355 12.6949 9.48195 12.6949 7.8997ZM13.0494 7.8997C13.0494 9.22719 14.085 10.3304 15.4041 10.3304C16.7233 10.3304 17.7589 9.22719 17.7589 7.8997C17.7589 6.57222 16.7233 5.46903 15.4041 5.46903C14.085 5.46903 13.0494 6.57222 13.0494 7.8997ZM3.69384 0.455752H19.5186C21.1681 0.455752 22.5443 1.86072 22.5443 3.6207V20.0784C22.5443 21.8384 21.1681 23.2434 19.5186 23.2434H3.69384C2.04427 23.2434 0.668155 21.8384 0.668155 20.0784V16.0351L2.9284 17.0459C3.05861 19.5196 5.04223 21.5216 7.49178 21.5216C10.0263 21.5216 12.062 19.3783 12.062 16.7869C12.062 16.6465 12.054 16.5132 12.042 16.3844L15.2933 13.6194C15.3295 13.621 15.3666 13.6219 15.4041 13.6219C18.464 13.6219 20.9238 11.0375 20.9238 7.8997C20.9238 4.76187 18.464 2.17748 15.4041 2.17748C12.3443 2.17748 9.88448 4.76187 9.88448 7.8997C9.88448 8.0653 9.89211 8.23135 9.90749 8.39505L7.56079 12.0529C7.53777 12.0524 7.51471 12.0521 7.49178 12.0521C6.36161 12.0521 5.33273 12.4776 4.53857 13.1792L0.668155 11.4549V3.6207C0.668155 1.86072 2.04427 0.455752 3.69384 0.455752Z" fill="white" stroke="white" stroke-width="0.911504"/>
</svg>
