<svg width="25" height="24" viewBox="0 0 25 24" fill="none" xmlns="http://www.w3.org/2000/svg">
<path d="M8.07291 14.3175C8.21613 14.293 8.36318 14.2802 8.51311 14.2802C9.93978 14.2802 11.0856 15.4154 11.0856 16.7869C11.0856 18.1584 9.93978 19.2935 8.51311 19.2935C7.61965 19.2935 6.83669 18.8469 6.37663 18.1775L7.67431 18.72C7.67494 18.7202 7.67557 18.7205 7.6762 18.7208C7.9534 18.8391 8.23665 18.8884 8.51311 18.8884C9.33769 18.8884 10.1256 18.4144 10.4778 17.616L10.4783 17.6149C10.9475 16.5439 10.4296 15.3104 9.35037 14.8531L9.3488 14.8525L8.07291 14.3175ZM14.0159 7.8997C14.0159 6.34387 15.3097 5.06391 16.9248 5.06391C18.5399 5.06391 19.8337 6.34387 19.8337 7.8997C19.8337 9.45554 18.5399 10.7355 16.9248 10.7355C15.3097 10.7355 14.0159 9.45554 14.0159 7.8997ZM14.4502 7.8997C14.4502 9.25359 15.5655 10.3304 16.9248 10.3304C18.2841 10.3304 19.3994 9.25359 19.3994 7.8997C19.3994 6.54582 18.2841 5.46903 16.9248 5.46903C15.5655 5.46903 14.4502 6.54582 14.4502 7.8997ZM4.4755 0.455752H21.2989C23.0957 0.455752 24.5443 1.88712 24.5443 3.6207V20.0784C24.5443 21.812 23.0957 23.2434 21.2989 23.2434H4.4755C2.67871 23.2434 1.23011 21.812 1.23011 20.0784V16.0182L3.69083 17.0533C3.83263 19.5468 5.95234 21.5216 8.51311 21.5216C11.1644 21.5216 13.3429 19.4047 13.3429 16.7869C13.3429 16.6492 13.3349 16.5183 13.3226 16.3921L16.7897 13.6187C16.8336 13.6206 16.879 13.6219 16.9248 13.6219C20.1347 13.6219 22.764 11.0639 22.764 7.8997C22.764 4.73547 20.1347 2.17748 16.9248 2.17748C13.7149 2.17748 11.0856 4.73547 11.0856 7.8997C11.0856 8.06328 11.0934 8.2273 11.1093 8.38911L8.61006 12.0535C8.57776 12.0526 8.5453 12.0521 8.51311 12.0521C7.3175 12.0521 6.22551 12.4788 5.38222 13.1876L1.23011 11.4476V3.6207C1.23011 1.88712 2.67871 0.455752 4.4755 0.455752Z" fill="#242427" stroke="#242427" stroke-width="0.911504"/>
</svg>
