<svg width="23" height="22" viewBox="0 0 23 22" fill="none" xmlns="http://www.w3.org/2000/svg">
<path d="M10.4143 8.67277L10.4066 8.67212L10.3988 8.67173C10.2771 8.66564 10.1399 8.65929 9.99981 8.65929C7.06828 8.65929 4.6827 11.0449 4.6827 13.9764C4.6827 16.9079 7.06828 19.2935 9.99981 19.2935C12.9313 19.2935 15.3169 16.9079 15.3169 13.9764V8.77439C16.1601 9.28017 17.1477 9.5708 18.2033 9.5708C18.9594 9.5708 19.5706 8.95961 19.5706 8.20354C19.5706 7.44747 18.9594 6.83628 18.2033 6.83628C16.6138 6.83628 15.3169 5.53939 15.3169 3.94985C15.3169 3.19378 14.7057 2.5826 13.9497 2.5826C13.1936 2.5826 12.5824 3.19378 12.5824 3.94985V13.9764C12.5824 15.4019 11.4253 16.559 9.99981 16.559C8.57435 16.559 7.41721 15.4019 7.41721 13.9764C7.41721 12.5509 8.57435 11.3938 9.99981 11.3938C10.059 11.3938 10.122 11.3982 10.2022 11.4043L10.2043 11.4045C10.9572 11.4589 11.6133 10.8974 11.6695 10.1419C11.7323 9.38667 11.1615 8.73578 10.4143 8.67277ZM1.34052 3.34218C1.34052 1.75886 2.64363 0.455752 4.22695 0.455752H19.4187C21.002 0.455752 22.3051 1.75886 22.3051 3.34218V18.5339C22.3051 20.1172 21.002 21.4204 19.4187 21.4204H4.22695C2.64363 21.4204 1.34052 20.1172 1.34052 18.5339V3.34218Z" fill="white" stroke="white" stroke-width="0.911504"/>
</svg>
