<svg width="25" height="22" viewBox="0 0 25 22" fill="none" xmlns="http://www.w3.org/2000/svg">
<path d="M10.936 8.67259L10.9287 8.67201L10.9213 8.67166C10.7919 8.66558 10.6474 8.65929 10.5 8.65929C7.42599 8.65929 4.87606 11.019 4.87606 13.9764C4.87606 16.9338 7.42599 19.2935 10.5 19.2935C13.5739 19.2935 16.1239 16.9338 16.1239 13.9764V8.74964C17.0266 9.27145 18.0877 9.5708 19.2212 9.5708C19.9824 9.5708 20.646 8.98548 20.646 8.20354C20.646 7.4216 19.9824 6.83628 19.2212 6.83628C17.4888 6.83628 16.1239 5.51351 16.1239 3.94985C16.1239 3.16791 15.4603 2.5826 14.6991 2.5826C13.9379 2.5826 13.2743 3.16791 13.2743 3.94985V13.9764C13.2743 15.376 12.0579 16.559 10.5 16.559C8.94198 16.559 7.72562 15.376 7.72562 13.9764C7.72562 12.5768 8.94198 11.3938 10.5 11.3938C10.5653 11.3938 10.6343 11.3983 10.7194 11.4045L10.7214 11.4046C11.4786 11.4561 12.1845 10.9229 12.2462 10.1441C12.3153 9.36168 11.6899 8.73239 10.936 8.67259ZM1.26544 3.34218C1.26544 1.78474 2.63699 0.455752 4.36279 0.455752H20.5132C22.239 0.455752 23.6106 1.78474 23.6106 3.34218V18.5339C23.6106 20.0914 22.239 21.4204 20.5132 21.4204H4.36279C2.63699 21.4204 1.26544 20.0914 1.26544 18.5339V3.34218Z" fill="#242427" stroke="#242427" stroke-width="0.911504"/>
</svg>
