<svg width="27" height="25" viewBox="0 0 27 25" fill="none" xmlns="http://www.w3.org/2000/svg">
<path d="M7.36963 0C6.08999 0 4.89406 0.579996 4.19599 1.53937L0.933597 6.01807L0.97394 5.9688C0.572276 6.44768 0.354004 7.03019 0.354004 7.62953V18.7656C0.354004 20.2838 1.75342 21.5343 3.45234 21.5343H7.23919V23.6877C7.23922 23.9325 7.34804 24.1672 7.54172 24.3403C7.73539 24.5134 7.99807 24.6106 8.27197 24.6106H9.07883C9.71785 24.6106 10.331 24.3833 10.7826 23.9797L13.5192 21.5343H17.6867C18.5593 21.5343 19.3913 21.2042 19.9781 20.6282L25.1756 15.5198H25.1743C26.0385 14.6707 26.5177 13.5636 26.5177 12.4159V2.76869C26.5177 1.25053 25.1183 0 23.4194 0H7.36963ZM7.36963 1.8458H12.7473H23.4194C24.0022 1.8458 24.4522 2.24787 24.4522 2.76869V12.4159C24.4522 13.1053 24.1651 13.7691 23.6467 14.2785L23.3306 14.5885L23.3508 14.5513L21.4654 16.4163C20.9429 16.9331 20.2008 17.2274 19.4214 17.2274H13.7801L9.99327 20.3038V17.2274H7.23919C6.48182 17.2274 5.86215 16.6737 5.86215 15.9969V3.07633C5.86215 2.74378 6.01111 2.44333 6.25079 2.22193C6.55887 1.98515 6.9519 1.8458 7.36963 1.8458ZM13.0755 5.52417C12.8018 5.52799 12.541 5.62873 12.3504 5.80425C12.1598 5.97977 12.0549 6.21572 12.0588 6.46029V11.3824C12.0569 11.5047 12.0822 11.6261 12.1332 11.7396C12.1842 11.8531 12.26 11.9564 12.3561 12.0435C12.4522 12.1306 12.5667 12.1997 12.693 12.2469C12.8192 12.2941 12.9547 12.3185 13.0916 12.3185C13.2285 12.3185 13.364 12.2941 13.4902 12.2469C13.6165 12.1997 13.731 12.1306 13.8271 12.0435C13.9232 11.9564 13.999 11.8531 14.05 11.7396C14.101 11.6261 14.1263 11.5047 14.1244 11.3824V6.46029C14.1264 6.33676 14.1006 6.21414 14.0485 6.09969C13.9965 5.98523 13.9193 5.88127 13.8215 5.79398C13.7237 5.70668 13.6072 5.63782 13.4791 5.59147C13.3509 5.54513 13.2137 5.52224 13.0755 5.52417ZM18.5836 5.52417C18.3099 5.52799 18.0492 5.62873 17.8585 5.80425C17.6679 5.97977 17.5631 6.21572 17.567 6.46029V11.3824C17.565 11.5047 17.5903 11.6261 17.6414 11.7396C17.6924 11.8531 17.7682 11.9564 17.8643 12.0435C17.9603 12.1306 18.0749 12.1997 18.2011 12.2469C18.3274 12.2941 18.4629 12.3185 18.5998 12.3185C18.7366 12.3185 18.8721 12.2941 18.9984 12.2469C19.1247 12.1997 19.2392 12.1306 19.3353 12.0435C19.4314 11.9564 19.5071 11.8531 19.5582 11.7396C19.6092 11.6261 19.6345 11.5047 19.6325 11.3824V6.46029C19.6345 6.33676 19.6087 6.21414 19.5567 6.09969C19.5047 5.98523 19.4275 5.88127 19.3296 5.79398C19.2318 5.70668 19.1154 5.63782 18.9872 5.59147C18.8591 5.54513 18.7218 5.52224 18.5836 5.52417Z" fill="#242427"/>
</svg>
