<svg width="27" height="23" viewBox="0 0 27 23" fill="none" xmlns="http://www.w3.org/2000/svg">
<path d="M26.4336 2.69684C25.4592 3.15578 24.4147 3.46393 23.3166 3.60379C24.4374 2.89134 25.2985 1.76365 25.7023 0.42179C24.6557 1.07961 23.4918 1.55822 22.2577 1.8161C21.2689 0.697156 19.8597 0 18.3002 0C15.3048 0 12.8759 2.57445 12.8759 5.75209C12.8759 6.20229 12.9253 6.64156 13.018 7.06335C8.51043 6.82295 4.51582 4.53261 1.8397 1.0512C1.37205 1.90352 1.10629 2.89134 1.10629 3.94472C1.10629 5.94003 2.0622 7.7015 3.51871 8.73521C2.62874 8.70462 1.79232 8.44455 1.06097 8.01402C1.06097 8.03806 1.06097 8.0621 1.06097 8.08614C1.06097 10.8748 2.93158 13.1979 5.40992 13.729C4.95669 13.8601 4.47668 13.93 3.98225 13.93C3.63202 13.93 3.2921 13.895 2.96042 13.8251C3.65262 16.1089 5.65508 17.7764 8.0263 17.8223C6.17217 19.3652 3.83392 20.2831 1.29171 20.2831C0.852897 20.2831 0.422329 20.2569 0 20.2022C2.398 21.8369 5.24923 22.7876 8.31266 22.7876C18.2878 22.7876 23.7431 14.0218 23.7431 6.42083C23.7431 6.17169 23.7369 5.92036 23.7287 5.67559C24.7876 4.8648 25.7064 3.85075 26.4336 2.69684Z" fill="white"/>
</svg>
