<svg width="26" height="25" viewBox="0 0 26 25" fill="none" xmlns="http://www.w3.org/2000/svg">
<path d="M7.32476 0C6.12108 0 4.99614 0.579996 4.33951 1.53937L1.27077 6.01807L1.30872 5.9688C0.930901 6.44768 0.725586 7.03019 0.725586 7.62953V18.7656C0.725586 20.2838 2.04193 21.5343 3.64 21.5343H7.20206V23.6877C7.20209 23.9325 7.30445 24.1672 7.48663 24.3403C7.66881 24.5134 7.91589 24.6106 8.17354 24.6106H8.9325C9.53359 24.6106 10.1103 24.3833 10.5352 23.9797L13.1093 21.5343H17.0294C17.8502 21.5343 18.6328 21.2042 19.1848 20.6282L24.0738 15.5198H24.0725C24.8854 14.6707 25.3362 13.5636 25.3362 12.4159V2.76869C25.3362 1.25053 24.0199 0 22.4218 0H7.32476ZM7.32476 1.8458H12.3832H22.4218C22.97 1.8458 23.3933 2.24787 23.3933 2.76869V12.4159C23.3933 13.1053 23.1232 13.7691 22.6356 14.2785L22.3383 14.5885L22.3573 14.5513L20.5838 16.4163C20.0923 16.9331 19.3943 17.2274 18.6611 17.2274H13.3547L9.79266 20.3038V17.2274H7.20206C6.48965 17.2274 5.90677 16.6737 5.90677 15.9969V3.07633C5.90677 2.74378 6.04688 2.44333 6.27234 2.22193C6.56213 1.98515 6.93183 1.8458 7.32476 1.8458ZM12.6919 5.52417C12.4345 5.52799 12.1892 5.62873 12.0099 5.80425C11.8305 5.97977 11.7319 6.21572 11.7356 6.46029V11.3824C11.7338 11.5047 11.7576 11.6261 11.8056 11.7396C11.8536 11.8531 11.9248 11.9564 12.0152 12.0435C12.1056 12.1306 12.2133 12.1997 12.3321 12.2469C12.4509 12.2941 12.5783 12.3185 12.7071 12.3185C12.8358 12.3185 12.9633 12.2941 13.082 12.2469C13.2008 12.1997 13.3085 12.1306 13.3989 12.0435C13.4893 11.9564 13.5606 11.8531 13.6086 11.7396C13.6566 11.6261 13.6804 11.5047 13.6785 11.3824V6.46029C13.6804 6.33676 13.6562 6.21414 13.6072 6.09969C13.5583 5.98523 13.4856 5.88127 13.3936 5.79398C13.3016 5.70668 13.1921 5.63782 13.0716 5.59147C12.951 5.54513 12.8219 5.52224 12.6919 5.52417ZM17.8731 5.52417C17.6156 5.52799 17.3703 5.62873 17.191 5.80425C17.0117 5.97977 16.9131 6.21572 16.9168 6.46029V11.3824C16.915 11.5047 16.9387 11.6261 16.9867 11.7396C17.0348 11.8531 17.106 11.9564 17.1964 12.0435C17.2868 12.1306 17.3945 12.1997 17.5133 12.2469C17.632 12.2941 17.7595 12.3185 17.8883 12.3185C18.017 12.3185 18.1445 12.2941 18.2632 12.2469C18.382 12.1997 18.4897 12.1306 18.5801 12.0435C18.6705 11.9564 18.7418 11.8531 18.7898 11.7396C18.8378 11.6261 18.8615 11.5047 18.8597 11.3824V6.46029C18.8616 6.33676 18.8373 6.21414 18.7884 6.09969C18.7395 5.98523 18.6668 5.88127 18.5748 5.79398C18.4828 5.70668 18.3733 5.63782 18.2527 5.59147C18.1322 5.54513 18.0031 5.52224 17.8731 5.52417Z" fill="white"/>
</svg>
