<svg width="29" height="23" viewBox="0 0 29 23" fill="none" xmlns="http://www.w3.org/2000/svg">
<path d="M28.1018 2.69684C27.0658 3.15578 25.9554 3.46393 24.7881 3.60379C25.9795 2.89134 26.895 1.76365 27.3243 0.42179C26.2117 1.07961 24.9742 1.55822 23.6623 1.8161C22.6111 0.697156 21.113 0 19.4551 0C16.2706 0 13.6884 2.57445 13.6884 5.75209C13.6884 6.20229 13.741 6.64156 13.8395 7.06335C9.0475 6.82295 4.8008 4.53261 1.9558 1.0512C1.45864 1.90352 1.17611 2.89134 1.17611 3.94472C1.17611 5.94003 2.19234 7.7015 3.74077 8.73521C2.79463 8.70462 1.90543 8.44455 1.12793 8.01402C1.12793 8.03806 1.12793 8.0621 1.12793 8.08614C1.12793 10.8748 3.11658 13.1979 5.75132 13.729C5.26949 13.8601 4.75919 13.93 4.23355 13.93C3.86123 13.93 3.49985 13.895 3.14724 13.8251C3.88313 16.1089 6.01195 17.7764 8.53281 17.8223C6.56168 19.3652 4.07586 20.2831 1.37322 20.2831C0.906721 20.2831 0.44898 20.2569 0 20.2022C2.54933 21.8369 5.58049 22.7876 8.83724 22.7876C19.4419 22.7876 25.2414 14.0218 25.2414 6.42083C25.2414 6.17169 25.2349 5.92036 25.2261 5.67559C26.3518 4.8648 27.3286 3.85075 28.1018 2.69684Z" fill="#242427"/>
</svg>
